# xmcd CD database file
#
# Track frame offsets:
#	150
#	9512
#	25667
#	35762
#	46262
#	61445
#	76487
#	85950
#	100395
#	118075
#
# Disc length: 1673 seconds
#
# Revision: 1
# Processed by: cddbd v1.5.2PL0 Copyright (c) Steve Scherf et al.
# Submitted via: CDex 1.51
#
DISCID=7b06870a
DTITLE=Various Artist - The Men of Country Christmas
DYEAR=2002
DGENRE=Country
TTITLE0=Eddie Arnold - Up on the Housetop
TTITLE1=John Anderson - What Child Is This?
TTITLE2=Chet Atkins and Gallopin' Guitar - Jolly Old St. Nicholas
TTITLE3=Jim Reeves - O Little Town of Bethlehem
TTITLE4=Hank Snow - Silent Night
TTITLE5=Blackwood Brothers Quartet - O Holy Night
TTITLE6=Floyd Cramer - Up on the Housetop - Jingle Bells
TTITLE7=Don Williams - O Come, All Ye Faithful
TTITLE8=Lorne Greene - 'Twas the Night Before Christmas
TTITLE9=Cast Of Bonanza - Deck the Halls
EXTD=Eddie Arnold - Up On The Housetop\nJohn Anderson - What Child Is This\nChet Atkins and Gallopin' Guitar - Jolly Old St. Nicholas\nJim Reeves - O Little Town Of Bethlehem\nHank Snow - Silent Night\nThe Blackwood Brothers Quartet - O Holy Night\nFloyd C
EXTD=ramer - Up On The Housetop - Jingle Bells\nDon Williams - O Come, All Ye Faithful\nLorne Greene - 'Twas The Night Before Christmas\nCast Of Bonanza - Deck The Halls\n\nalbum title:  The Men Of Country Christmas\n YEAR: 2002
EXTT0=
EXTT1=
EXTT2=
EXTT3=
EXTT4=
EXTT5=
EXTT6=
EXTT7=
EXTT8=
EXTT9=
PLAYORDER=
